<?xml version="1.0" encoding="utf-8"?>
<!-- Generator: Adobe Illustrator 23.0.1, SVG Export Plug-In . SVG Version: 6.00 Build 0)  -->
<svg version="1.1" id="Layer_1" xmlns="http://www.w3.org/2000/svg" xmlns:xlink="http://www.w3.org/1999/xlink" x="0px" y="0px"
	 viewBox="0 0 1000 1000" style="enable-background:new 0 0 1000 1000;" xml:space="preserve">
<style type="text/css">
	.st0{fill:#38ACB8;}
	.st1{fill:#DC7F58;}
	.st2{fill:#D4DB32;}
</style>
<g>
	<path class="st0" d="M820.1,736c-33.6-22.4-50.6-11.2-50.6-11.2s0.7,25.9,25.9,47.7c25.2,21.7,58.9,18.9,58.9,18.9
		s-0.7-32.8-34.3-55.4L820.1,736z M317.2,866.4c-23.8,40.6-13.3,75-13.3,75s27.3,7.7,61.7-37.1s20.3-88.8,20.3-88.8
		s-44.8,10.5-68.7,51.2L317.2,866.4z M211.4,764.1c-25.2,21.9-25.9,47.7-25.9,47.7s16.8,11.2,50.6-11.2
		c33.8-22.4,34.3-55.4,34.3-55.4s-32.8-3.5-58.8,18.9L211.4,764.1z M522.5,853.8c0,0-27.3,21-30.8,65.9
		c-3.5,44.9,26.6,77.9,26.6,77.9s35-26.6,32.2-80.6c-2.1-54.7-28-63.1-28-63.1L522.5,853.8z M705.4,853.1c0,0-7.7,24.5,9.1,53.2
		s49.7,36.4,49.7,36.4s9.8-31.5-14.7-63.1C724.3,847.5,705.4,853.1,705.4,853.1L705.4,853.1z M820.3,233
		c33.6-22.4,34.3-55.4,34.3-55.4s-32.8-3.5-58.9,18.9c-25.2,21.9-25.9,47.6-25.9,47.6s16.8,11.2,50.6-11.2H820.3z M230.3,277.1
		c0,0-0.7-32.8-34.3-55.4s-50.6-11.2-50.6-11.2s0.7,25.9,25.9,47.7c25.2,22.4,58.9,18.9,58.9,18.9L230.3,277.1z M341.7,155.2
		c0,0,9.8-31.5-14.7-63.1c-24.5-32.2-44.1-26.6-44.1-26.6s-7.7,24.5,9.1,53.2C309.5,148.2,341.7,155.2,341.7,155.2L341.7,155.2z
		 M721.5,116c34.3-44.1,20.3-87.5,20.3-87.5S697,39,673.1,79.1s-12.6,74.3-12.6,74.3s26.6,7.7,61-37.1L721.5,116z M516.2,76.7
		C518.3,27,486,2.5,486,2.5s-27.3,30.1-24.5,71.5c3.5,41.3,28.7,60.1,28.7,60.1s23.8-7.7,25.9-57.5L516.2,76.7z"/>
	<path class="st1" d="M525.1,228C381.6,228,265.2,344.2,265.2,488s116.2,259.9,259.9,259.9S785.1,631.8,785.1,488
		S668.9,228,525.1,228z M525.1,717.8C398.3,717.8,296,614.8,296,488s102.3-229.8,229.1-229.8s229.1,103,229.1,229.8
		S652,717.8,525.1,717.8z"/>
	<path class="st0" d="M527.9,299.5c-105.8,0-190.6,86.2-190.6,190.6c0,105.8,84.8,190.6,190.6,190.6c105.2,0,189.9-85.5,189.9-190.6
		S633,299.5,527.9,299.5z"/>
	<path class="st2" d="M713.7,527.9c0,1.4,0,2.8,0.7,4.2c0.7-2.1,0.7-4.2,1.4-7C714.3,525.8,714.3,527.2,713.7,527.9L713.7,527.9z
		 M582.6,563c-6.3,4.2-10.5,8.4-11.9,18.9c1.4,2.1,2.1,3.5,4.9,4.9c7.7-2.8,16.1-15.4,10.5-23.2c-1.4-0.7-2.1-0.7-3.5-0.7L582.6,563
		z M491.5,321.2c-3.5-1.4-7.7-2.1-11.2-3.5c-9.1,2.1-20.3,0-30.8-2.1c-7.7,3.5-15.4,7.7-22.4,11.9c1.5,1.6,2.7,3.4,3.5,5.5
		c-1.4,4.9-6.3,9.8-4.2,15.4c0.7,3.5,2.1,4.9,4.9,7c9.1,0.7,14-4.9,21-7l21.9-3.5c8.4-2.1,23.1-14,17.5-23.8L491.5,321.2z
		 M380.1,496.4L369.6,481c-9.1-9.1-18.2-16.8-30.1-19.6c-1.4,9.1-2.1,18.9-2.1,28.7c0,32.2,7.7,63.1,22.4,89.7
		c2.1-2.1,4.2-3.5,6.3-5.5l9.1-14.7c4.9-4.9,12.6-6.3,16.8-11.9l4.9-13.3c2.8-5.5,9.8-9.8,8.4-17.5c-3.5-11.2-17.5-12.6-25.2-20.3
		L380.1,496.4z M384.3,378.7c6.3-2.8,9.8,4.9,14.7-0.7c6.3-6.3-2.1-16.8-2.1-23.8c0-1.4,0.7-3.5,1.4-4.9
		c-12.6,11.2-23.1,24.5-32.3,38.5c2.8-0.7,5.5-0.7,7.7-1.4C378,384.3,380.8,381.5,384.3,378.7L384.3,378.7z M665.3,357.7
		c-4.2,0-8.4,0-12.6,0.7l-59.6,6.3c-18.9,0-28.7-15.4-46.9-11.2c-7,1.4-20.3,9.1-23.8,14.7c-4.9,7.7,1.4,12.6-7.7,16.8
		c-6.3-1.4-8.4-6.3-14-9.1c-4,0.3-7.6,2.3-9.8,5.6c-0.7,8.4,5.5,9.8,5.5,18.2c-3.5,4.9-11.9,5.5-14,11.2c-2.8,6.3,0,13.3-4.2,18.2
		l-18.2,17.5c-11.9,14.7-6.3,38.5,2.8,47.6c8.4,8.4,21,1.4,32.3,6.3c8.4,3.5,9.8,19.6,11.9,27.3c4.2,12.6-3.5,18.2-3.5,30.1
		c0,11.9,4.2,46.2,21,45.5c18.9-0.7,23.2-19.6,33.6-32.2c3.5-4.2,9.1-6.3,11.9-12.6l0.7-19.6c4.2-11.2,17.5-14.7,24.5-23.1
		c7-7.7,0.7-14,4.2-20.3c0,0,0.7,0,0.7-0.7l17.5-9.8l8.4-9.8l6.3-2.1c21.9,11.2,14,33.6,29.4,45.5c1.4-0.7,2.1-1.4,3.5-2.1
		c2.1-2.8,0.7-5.5,2.1-9.8c2.8-8.4,12.6-16.8,23.1-14.7c4.9,6.3,13.3,14.7,14.7,23.8c1.4,8.4-4.2,13.3-4.2,20.3
		c0,4.9,2.8,11.2,7,17.5c2.8-7.2,5-14.8,6.3-22.4c0-1.4,0-2.8-0.7-4.2c0.7-0.7,0.7-1.4,1.4-2.8c2.2-11.5,3.4-23.3,3.5-35
		c0-50.6-20.3-97.4-53.3-131.7L665.3,357.7z M560.9,445.1c-4.2,0.7-8.4-2.1-11.2-3.5c-4.9-0.7-10.5-0.7-15.4-1.4
		c-0.7,0-25.2-19.6-25.9-21c1.4-3.5,2.8-3.5,4.9-4.9c9.1,2.1,11.2,7.7,17.5,10.5l9.8,2.1c3.5,2.8,7,4.9,10.5,7.7
		c4.2,2.1,9.8,2.1,13.3,2.8c0,0.7,0.7,1.4,0.7,2.1v3.5C563,443.7,562.3,444.4,560.9,445.1L560.9,445.1z M533.6,440.2l-25.9-21
		C509,420.6,532.9,440.2,533.6,440.2z"/>
</g>
</svg>
